# xmcd CD database file
#
# Track frame offsets:
#	150
#	25590
#	48725
#	77708
#	102710
#	120768
#	139120
#	174148
#	194345
#	227673
#	250938
#	285698
#	307868
#
# Disc length: 4439 seconds
#
# Revision: 0
# Processed by: cddbd v1.5PL3 Copyright (c) Steve Scherf et al.
# Submitted via: CDex 1.50
#
DISCID=a411550d
DTITLE=relaxin' with japanese lovers - V.A.
DYEAR=2003
DGENRE=JPop
TTITLE0=接吻(Dennis Bovell Lovers Mix)(中島美嘉)
TTITLE1=林檎殺人事件(Remix)(郷ひろみ)
TTITLE2=Junior Sweet(Sakuragarian Dub Mix)(Chara)
TTITLE3=Time of GOLD(Reggae Disco Rokers Golden Mix)(椎名純平 with 篠原涼子)
TTITLE4=Midnight Love Call(南佳孝)
TTITLE5=ジャマイカン・アフェアー(YUKI OKAZAKI)
TTITLE6=フェイバリット(Skyscraper Disco Mix)(キリンジ)
TTITLE7=クライング・ドゥービーマン(パンチ・ミックス)(スチャダラパー feat.NAMA-ROY galore)
TTITLE8=MY SWEET LITTLE DEVIL-やさしい悪魔-(Showcase Style Version)(キャンディーズ)
TTITLE9=LOST CHILD(Dub Version)(HIROSHI FUJIWARA+SHINICHI OSAWA feat.CRYSTAL KAY)
TTITLE10=Small Town Girl(Tica)
TTITLE11=LOVERS ROCK(Mad Professor’s Remix)(PIZZICATO FIVE)
TTITLE12=桜(Mad Professor’s Lovers Rock Dub)(bird)
EXTD=YEAR: 2003
EXTT0=
EXTT1=
EXTT2=
EXTT3=
EXTT4=
EXTT5=
EXTT6=
EXTT7=
EXTT8=
EXTT9=
EXTT10=
EXTT11=
EXTT12=
PLAYORDER=
